<svg width="14" height="15" viewBox="0 0 14 15" fill="none" xmlns="http://www.w3.org/2000/svg">
<path d="M10.738 2.922C10.5719 2.922 10.4095 2.97127 10.2713 3.06357C10.1332 3.15587 10.0255 3.28706 9.96194 3.44055C9.89836 3.59404 9.88173 3.76293 9.91414 3.92588C9.94655 4.08882 10.0266 4.23849 10.144 4.35597C10.2615 4.47345 10.4112 4.55345 10.5741 4.58586C10.7371 4.61827 10.906 4.60164 11.0595 4.53806C11.2129 4.47448 11.3441 4.36682 11.4364 4.22868C11.5287 4.09054 11.578 3.92814 11.578 3.762C11.578 3.53922 11.4895 3.32556 11.332 3.16803C11.1744 3.0105 10.9608 2.922 10.738 2.922ZM13.958 4.616C13.9444 4.03521 13.8356 3.46058 13.636 2.915C13.458 2.44819 13.181 2.02549 12.824 1.676C12.4774 1.3172 12.0537 1.04192 11.585 0.871C11.0409 0.665313 10.4656 0.554047 9.884 0.542C9.142 0.5 8.904 0.5 7 0.5C5.096 0.5 4.858 0.5 4.116 0.542C3.53441 0.554047 2.95914 0.665313 2.415 0.871C1.94717 1.04365 1.52385 1.31869 1.176 1.676C0.817198 2.02262 0.541924 2.44631 0.371 2.915C0.165313 3.45914 0.054047 4.03441 0.042 4.616C-4.09782e-08 5.358 0 5.596 0 7.5C0 9.404 -4.09782e-08 9.642 0.042 10.384C0.054047 10.9656 0.165313 11.5409 0.371 12.085C0.541924 12.5537 0.817198 12.9774 1.176 13.324C1.52385 13.6813 1.94717 13.9563 2.415 14.129C2.95914 14.3347 3.53441 14.446 4.116 14.458C4.858 14.5 5.096 14.5 7 14.5C8.904 14.5 9.142 14.5 9.884 14.458C10.4656 14.446 11.0409 14.3347 11.585 14.129C12.0537 13.9581 12.4774 13.6828 12.824 13.324C13.1826 12.9758 13.4598 12.5527 13.636 12.085C13.8356 11.5394 13.9444 10.9648 13.958 10.384C13.958 9.642 14 9.404 14 7.5C14 5.596 14 5.358 13.958 4.616ZM12.698 10.3C12.6929 10.7443 12.6124 11.1846 12.46 11.602C12.3482 11.9066 12.1687 12.1819 11.935 12.407C11.708 12.6384 11.4333 12.8175 11.13 12.932C10.7126 13.0844 10.2723 13.1649 9.828 13.17C9.128 13.205 8.869 13.212 7.028 13.212C5.187 13.212 4.928 13.212 4.228 13.17C3.76662 13.1786 3.30722 13.1076 2.87 12.96C2.58005 12.8397 2.31795 12.661 2.1 12.435C1.86766 12.2101 1.69039 11.9346 1.582 11.63C1.4111 11.2066 1.31631 10.7564 1.302 10.3C1.302 9.6 1.26 9.341 1.26 7.5C1.26 5.659 1.26 5.4 1.302 4.7C1.30514 4.24574 1.38807 3.79556 1.547 3.37C1.67023 3.07454 1.85939 2.81116 2.1 2.6C2.31267 2.35932 2.5755 2.16817 2.87 2.04C3.29669 1.88603 3.7464 1.80556 4.2 1.802C4.9 1.802 5.159 1.76 7 1.76C8.841 1.76 9.1 1.76 9.8 1.802C10.2443 1.8071 10.6846 1.88757 11.102 2.04C11.4201 2.15806 11.7056 2.34999 11.935 2.6C12.1644 2.81502 12.3436 3.07791 12.46 3.37C12.6156 3.79625 12.6961 4.24625 12.698 4.7C12.733 5.4 12.74 5.659 12.74 7.5C12.74 9.341 12.733 9.6 12.698 10.3ZM7 3.909C6.29007 3.91038 5.59647 4.12217 5.00686 4.51759C4.41724 4.91302 3.95806 5.47434 3.68734 6.13063C3.41662 6.78692 3.34651 7.50873 3.48586 8.20485C3.6252 8.90097 3.96777 9.54017 4.47025 10.0417C4.97274 10.5432 5.61261 10.8845 6.309 11.0225C7.0054 11.1605 7.72707 11.089 8.38283 10.817C9.03859 10.545 9.59901 10.0847 9.99329 9.49432C10.3876 8.90394 10.598 8.20993 10.598 7.5C10.5989 7.02757 10.5064 6.55962 10.3259 6.12307C10.1453 5.68651 9.88019 5.28997 9.54581 4.95624C9.21143 4.6225 8.81436 4.35817 8.37746 4.17845C7.94055 3.99873 7.47242 3.90715 7 3.909ZM7 9.831C6.53897 9.831 6.0883 9.69429 5.70497 9.43816C5.32163 9.18202 5.02286 8.81797 4.84644 8.39204C4.67001 7.9661 4.62385 7.49741 4.71379 7.04524C4.80373 6.59307 5.02574 6.17773 5.35173 5.85173C5.67773 5.52574 6.09307 5.30373 6.54524 5.21379C6.99741 5.12385 7.4661 5.17001 7.89204 5.34644C8.31797 5.52286 8.68202 5.82163 8.93816 6.20497C9.19429 6.5883 9.331 7.03897 9.331 7.5C9.331 7.80611 9.27071 8.10923 9.15356 8.39204C9.03642 8.67484 8.86472 8.93181 8.64827 9.14827C8.43181 9.36472 8.17484 9.53642 7.89204 9.65356C7.60923 9.77071 7.30611 9.831 7 9.831Z" fill="black"/>
</svg>
