<svg width="14" height="15" viewBox="0 0 14 15" fill="none" xmlns="http://www.w3.org/2000/svg">
<path d="M12.9648 0.500098H1.03521C0.901112 0.498247 0.767958 0.522671 0.643356 0.571977C0.518754 0.621282 0.405143 0.694502 0.309012 0.787456C0.212881 0.88041 0.136114 0.991277 0.0830929 1.11372C0.0300721 1.23617 0.0018369 1.3678 0 1.5011V13.4991C0.0018369 13.6324 0.0300721 13.764 0.0830929 13.8865C0.136114 14.0089 0.212881 14.1198 0.309012 14.2127C0.405143 14.3057 0.518754 14.3789 0.643356 14.4282C0.767958 14.4775 0.901112 14.5019 1.03521 14.5001H12.9648C13.0989 14.5019 13.232 14.4775 13.3566 14.4282C13.4812 14.3789 13.5949 14.3057 13.691 14.2127C13.7871 14.1198 13.8639 14.0089 13.9169 13.8865C13.9699 13.764 13.9982 13.6324 14 13.4991V1.5011C13.9982 1.3678 13.9699 1.23617 13.9169 1.11372C13.8639 0.991277 13.7871 0.88041 13.691 0.787456C13.5949 0.694502 13.4812 0.621282 13.3566 0.571977C13.232 0.522671 13.0989 0.498247 12.9648 0.500098ZM4.24648 12.2181H2.1338V5.9181H4.24648V12.2181ZM3.19014 5.0361C2.89878 5.0361 2.61934 4.92105 2.41332 4.71626C2.20729 4.51147 2.09155 4.23371 2.09155 3.9441C2.09155 3.65448 2.20729 3.37673 2.41332 3.17194C2.61934 2.96715 2.89878 2.8521 3.19014 2.8521C3.34486 2.83466 3.50153 2.8499 3.64991 2.89682C3.79829 2.94374 3.93503 3.02128 4.05117 3.12437C4.16731 3.22746 4.26023 3.35377 4.32385 3.49503C4.38748 3.6363 4.42036 3.78932 4.42036 3.9441C4.42036 4.09887 4.38748 4.2519 4.32385 4.39316C4.26023 4.53442 4.16731 4.66073 4.05117 4.76382C3.93503 4.86691 3.79829 4.94446 3.64991 4.99138C3.50153 5.0383 3.34486 5.05354 3.19014 5.0361ZM11.8662 12.2181H9.75352V8.8371C9.75352 7.9901 9.4507 7.4371 8.6831 7.4371C8.44554 7.43883 8.21422 7.51289 8.02031 7.64932C7.8264 7.78574 7.67921 7.97797 7.59859 8.2001C7.54348 8.36463 7.5196 8.5379 7.52817 8.7111V12.2111H5.41549C5.41549 12.2111 5.41549 6.4851 5.41549 5.9111H7.52817V6.8001C7.72009 6.46907 7.99923 6.19636 8.33552 6.01134C8.67181 5.82632 9.05251 5.73599 9.43662 5.7501C10.8451 5.7501 11.8662 6.6531 11.8662 8.5921V12.2181Z" fill="black"/>
</svg>
