<svg width="13" height="14" viewBox="0 0 13 14" fill="none" xmlns="http://www.w3.org/2000/svg">
<rect width="13" height="14" fill="#F5F5F5"/>
<rect width="1280" height="2644" transform="translate(-1239 -57)" fill="white"/>
<rect x="-164.75" y="-5" width="185.75" height="24" rx="5.43447" stroke="#18090E" stroke-linejoin="round"/>
<path d="M12.8304 12.0204L10.5915 9.79795C11.4606 8.71354 11.8814 7.33712 11.7675 5.9517C11.6537 4.56629 11.0137 3.27719 9.97928 2.34947C8.94484 1.42175 7.59454 0.925926 6.20602 0.96395C4.8175 1.00197 3.49631 1.57095 2.51412 2.5539C1.53192 3.53684 0.963369 4.85904 0.925374 6.24861C0.887379 7.63818 1.38283 8.98951 2.30984 10.0247C3.23686 11.06 4.52498 11.7004 5.90934 11.8144C7.2937 11.9283 8.66908 11.5071 9.75267 10.6374L11.9734 12.8599C12.0295 12.9165 12.0963 12.9614 12.1698 12.9921C12.2434 13.0227 12.3222 13.0385 12.4019 13.0385C12.4816 13.0385 12.5604 13.0227 12.634 12.9921C12.7075 12.9614 12.7743 12.9165 12.8304 12.8599C12.9391 12.7473 12.9999 12.5968 12.9999 12.4401C12.9999 12.2835 12.9391 12.133 12.8304 12.0204V12.0204ZM6.36719 10.6374C5.53171 10.6374 4.71498 10.3895 4.0203 9.92495C3.32562 9.46042 2.78418 8.80018 2.46445 8.0277C2.14472 7.25523 2.06107 6.40521 2.22406 5.58516C2.38706 4.7651 2.78938 4.01183 3.38016 3.4206C3.97094 2.82938 4.72364 2.42675 5.54307 2.26363C6.36251 2.10051 7.21187 2.18423 7.98376 2.5042C8.75565 2.82417 9.4154 3.36602 9.87957 4.06123C10.3437 4.75644 10.5915 5.57378 10.5915 6.4099C10.5915 7.53111 10.1464 8.60639 9.35422 9.3992C8.56201 10.192 7.48755 10.6374 6.36719 10.6374V10.6374Z" fill="#18090E"/>
<path d="M12.8304 12.0204L10.5915 9.79795C11.4606 8.71354 11.8814 7.33712 11.7675 5.9517C11.6537 4.56629 11.0137 3.27719 9.97928 2.34947C8.94484 1.42175 7.59454 0.925926 6.20602 0.96395C4.8175 1.00197 3.49631 1.57095 2.51412 2.5539C1.53192 3.53684 0.963369 4.85904 0.925374 6.24861C0.887379 7.63818 1.38283 8.98951 2.30984 10.0247C3.23686 11.06 4.52498 11.7004 5.90934 11.8144C7.2937 11.9283 8.66908 11.5071 9.75267 10.6374L11.9734 12.8599C12.0295 12.9165 12.0963 12.9614 12.1698 12.9921C12.2434 13.0227 12.3222 13.0385 12.4019 13.0385C12.4816 13.0385 12.5604 13.0227 12.634 12.9921C12.7075 12.9614 12.7743 12.9165 12.8304 12.8599C12.9391 12.7473 12.9999 12.5968 12.9999 12.4401C12.9999 12.2835 12.9391 12.133 12.8304 12.0204V12.0204ZM6.36719 10.6374C5.53171 10.6374 4.71498 10.3895 4.0203 9.92495C3.32562 9.46042 2.78418 8.80018 2.46445 8.0277C2.14472 7.25523 2.06107 6.40521 2.22406 5.58516C2.38706 4.7651 2.78938 4.01183 3.38016 3.4206C3.97094 2.82938 4.72364 2.42675 5.54307 2.26363C6.36251 2.10051 7.21187 2.18423 7.98376 2.5042C8.75565 2.82417 9.4154 3.36602 9.87957 4.06123C10.3437 4.75644 10.5915 5.57378 10.5915 6.4099C10.5915 7.53111 10.1464 8.60639 9.35422 9.3992C8.56201 10.192 7.48755 10.6374 6.36719 10.6374V10.6374Z" fill="#18090E"/>
</svg>
