<svg width="14" height="11" viewBox="0 0 14 11" fill="none" xmlns="http://www.w3.org/2000/svg">
<path d="M13.9968 4.02431C14.0282 3.099 13.8292 2.18061 13.4181 1.35442C13.1391 1.01541 12.752 0.786638 12.3242 0.707956C10.5546 0.544741 8.77777 0.477844 7.00119 0.507553C5.23108 0.476496 3.4606 0.541234 1.69727 0.701492C1.34864 0.765955 1.02602 0.932177 0.768761 1.17987C0.196395 1.71644 0.132799 2.63442 0.0692028 3.41017C-0.0230676 4.80496 -0.0230676 6.20447 0.0692028 7.59926C0.0876013 8.03588 0.151556 8.46929 0.259991 8.89218C0.336673 9.21869 0.491814 9.52077 0.711525 9.77137C0.970532 10.0322 1.30067 10.2079 1.65911 10.2756C3.03019 10.4477 4.41169 10.5189 5.79286 10.4889C8.01873 10.5213 9.97113 10.4889 12.2797 10.3079C12.6469 10.2444 12.9864 10.0685 13.2527 9.8037C13.4307 9.62263 13.5637 9.40101 13.6406 9.15723C13.8681 8.44782 13.9798 7.70535 13.9713 6.95926C13.9968 6.59724 13.9968 4.41219 13.9968 4.02431ZM5.56392 7.34714V3.34553L9.32881 5.35603C8.27312 5.95078 6.88036 6.6231 5.56392 7.34714Z" fill="black"/>
</svg>
